<?xml version="1.0" standalone="no"?>
<!DOCTYPE svg PUBLIC "-//W3C//DTD SVG 20010904//EN"
 "http://www.w3.org/TR/2001/REC-SVG-20010904/DTD/svg10.dtd">
<svg version="1.0" xmlns="http://www.w3.org/2000/svg"
 width="1280.000000pt" height="699.000000pt" viewBox="0 0 1280.000000 699.000000"
 preserveAspectRatio="xMidYMid meet">
<metadata>
Created by potrace 1.15, written by Peter Selinger 2001-2017
</metadata>
<g transform="translate(0.000000,699.000000) scale(0.100000,-0.100000)"
stroke="none">
<path d="M4835 6742 c-75 -46 -360 -329 -525 -520 l-54 -64 -8 29 c-4 15 -12
74 -18 130 -14 131 -1 219 41 287 34 56 27 80 -15 52 -37 -24 -326 -414 -495
-666 -78 -118 -148 -218 -155 -222 -22 -15 -55 -8 -70 14 -30 42 -13 216 28
298 10 19 29 47 43 61 20 22 22 28 10 38 -27 22 -92 -70 -182 -254 -45 -93
-95 -203 -111 -243 l-28 -74 -18 24 c-10 13 -18 36 -18 51 0 67 -44 -17 -85
-162 -13 -47 -25 -101 -27 -120 -3 -33 -4 -34 -143 -90 -260 -106 -724 -354
-964 -514 -86 -57 -495 -367 -746 -564 -302 -237 -443 -395 -519 -581 -22 -56
-182 -317 -317 -518 -88 -131 -167 -283 -175 -335 -4 -22 -13 -43 -22 -46 -19
-8 -72 -120 -72 -154 0 -29 19 -48 105 -107 33 -23 76 -55 95 -71 l35 -30 -38
-1 c-45 0 -105 -23 -123 -48 -7 -9 -14 -42 -14 -74 0 -50 3 -59 29 -80 52 -44
273 -145 511 -233 403 -150 758 -293 828 -334 119 -69 245 -128 332 -155 101
-32 235 -82 541 -204 383 -152 813 -277 1093 -318 35 -5 76 -24 140 -64 251
-158 666 -378 903 -478 136 -58 353 -123 487 -147 85 -14 156 -20 156 -11 0 2
-11 26 -24 53 -13 26 -32 72 -42 102 -12 34 -27 57 -41 64 -13 6 -23 15 -23
21 0 6 -19 31 -43 56 -35 37 -44 55 -52 105 -10 58 -12 61 -55 82 -25 13 -65
42 -90 65 l-45 42 27 7 c15 4 54 10 88 14 33 4 66 12 73 19 7 7 77 22 157 35
213 33 320 58 359 84 53 35 137 64 313 107 188 47 363 82 514 105 l110 17 160
-60 c139 -53 250 -89 320 -105 12 -2 28 -1 35 4 11 6 7 15 -16 39 l-29 30 30
0 c16 0 83 -7 149 -15 205 -24 496 -39 528 -26 15 6 27 15 27 20 0 5 -25 23
-56 41 -78 44 -63 57 76 66 128 8 155 16 141 42 -19 36 10 58 86 65 109 11
130 21 281 134 141 105 143 107 140 142 -2 29 -8 37 -25 39 -35 5 -28 16 30
45 35 17 90 64 167 142 63 64 140 133 170 152 74 47 96 68 139 133 41 62 94
160 86 160 -3 0 -53 -11 -112 -25 -58 -14 -108 -23 -110 -21 -8 8 67 57 163
107 l99 51 147 5 c160 6 196 -1 322 -64 66 -33 355 -238 543 -384 449 -349
877 -663 1079 -790 99 -62 150 -86 280 -131 224 -79 242 -84 257 -69 19 19 16
159 -4 198 -16 31 -16 32 7 37 34 9 31 37 -13 115 -71 129 -82 140 -165 182
-43 22 -78 42 -78 46 0 3 38 3 85 -1 47 -3 85 -4 85 -1 0 3 -31 47 -70 98 -60
81 -71 102 -79 153 -11 70 -32 131 -68 191 -14 25 -32 70 -39 101 -51 217 -90
343 -146 462 -37 80 -38 87 -27 127 8 31 8 50 0 74 -11 31 -9 35 24 69 20 20
40 53 45 72 9 30 16 37 45 42 25 5 49 23 89 68 31 34 56 68 56 76 0 7 27 44
60 80 33 37 58 73 55 80 -2 7 5 17 18 21 50 20 160 156 184 229 22 66 63 121
160 221 70 71 81 86 66 92 -16 6 -15 8 8 17 14 6 33 25 42 44 9 18 28 44 42
57 14 13 25 27 25 33 0 5 19 30 43 54 23 25 44 51 47 58 3 6 49 64 102 128 69
81 120 131 171 166 41 28 80 58 87 67 8 10 38 28 67 41 44 19 54 28 59 54 4
16 10 30 13 30 4 0 17 9 30 21 21 20 21 22 5 40 -46 51 -194 62 -389 29 -66
-12 -147 -25 -180 -31 -78 -13 -322 -95 -455 -152 -58 -25 -235 -107 -395
-182 -413 -195 -814 -378 -1155 -528 -573 -251 -610 -263 -780 -254 -111 6
-235 25 -225 35 3 3 35 9 70 13 81 8 135 44 135 90 0 16 -4 29 -9 29 -5 0 -7
9 -4 20 5 21 -10 27 -77 32 -44 4 -55 35 -14 40 39 4 41 24 4 46 -25 16 -28
21 -15 26 9 3 25 6 36 6 22 0 23 7 4 40 -21 37 -18 48 15 65 27 14 29 18 19
38 -6 12 -27 38 -46 58 -30 31 -33 40 -24 57 6 11 9 27 6 34 -7 18 -58 48 -81
48 -11 0 -38 8 -62 18 -40 16 -43 19 -40 52 3 30 9 38 48 57 41 20 43 23 23
29 -13 3 -23 12 -23 19 0 7 -12 16 -27 20 -53 13 -75 33 -68 65 5 23 2 29 -16
35 -12 4 -34 20 -49 36 -18 20 -41 32 -71 37 -35 6 -46 13 -53 34 -8 22 -6 32
9 48 18 19 17 20 -18 35 -20 8 -42 15 -49 15 -39 0 -99 38 -124 78 -31 48 -50
62 -89 62 -51 0 -95 27 -112 69 -14 35 -20 40 -58 45 -23 4 -98 6 -166 4 -69
-1 -130 1 -137 6 -15 9 -7 42 15 68 10 11 11 18 4 23 -6 3 -76 3 -155 -1 -140
-7 -145 -6 -215 20 -80 31 -90 50 -43 85 l27 20 -33 1 c-18 0 -65 -6 -105 -14
-40 -8 -91 -17 -113 -20 l-41 -6 -13 45 c-12 42 -11 73 5 123 6 19 4 22 -21
22 -16 0 -78 -10 -139 -22 -132 -25 -157 -25 -245 1 -76 23 -116 50 -108 73 3
8 47 32 97 54 87 37 152 77 141 87 -6 6 -197 -26 -270 -45 -49 -13 -60 -13
-100 1 -49 17 -170 128 -170 155 0 21 42 46 146 86 46 18 84 36 84 41 0 12
-252 -58 -347 -97 -50 -21 -118 -40 -158 -45 -67 -9 -76 -7 -200 33 -71 23
-132 43 -134 45 -11 8 172 122 352 218 101 54 127 75 91 75 -9 0 -102 -38
-206 -85 l-191 -85 -63 31 c-87 43 -94 54 -101 143 -5 61 -3 80 12 102 19 30
9 50 -22 40 -11 -4 -60 -33 -109 -66 -49 -33 -99 -60 -111 -60 -36 0 -60 43
-73 134 -11 69 -11 96 0 146 7 33 10 63 7 66 -9 9 -65 -26 -157 -96 -43 -33
-85 -60 -94 -60 -8 0 -34 9 -59 19 -39 17 -47 25 -60 68 -26 79 -30 152 -12
213 23 80 29 130 17 130 -15 0 -191 -160 -241 -220 l-45 -53 -14 39 c-7 21
-14 77 -14 124 -1 76 3 95 35 175 50 121 49 131 -8 97z"/>
</g>
</svg>
